<?xml version="1.0" encoding="UTF-8" standalone="no"?>
<svg width="32px" height="32px" viewBox="0 0 32 32" version="1.1" xmlns="http://www.w3.org/2000/svg" xmlns:xlink="http://www.w3.org/1999/xlink">
    <!-- Generator: sketchtool 39.1 (31720) - http://www.bohemiancoding.com/sketch -->
    <title>CB1091F0-BFCD-43EB-A63E-8482764A9AB8</title>
    <desc>Created with sketchtool.</desc>
    <defs></defs>
    <g id="Page-1" stroke="none" stroke-width="1" fill="none" fill-rule="evenodd">
        <g id="LightningNotesComponent-1" transform="translate(-35.000000, -35.000000)">
            <g id="Top" transform="translate(15.000000, 15.000000)">
                <g id="iconNotesComponent" transform="translate(20.000000, 20.000000)">
                    <rect id="Rectangle-2" fill="#9012FE" x="0" y="0" width="32" height="32" rx="4"></rect>
                    <path d="M8,24 L8,26 L22.0059397,26 C23.1054862,26 24,25.1057238 24,24.0025781 L24,8.99742191 C24,7.89092539 23.1072288,7 22.0059397,7 L9.99406028,7 C8.89451376,7 8,7 8,7 L8,9 L8.96540084,9 C9.62814955,9 10.1654135,9.39247765 10.1654135,9.87662338 C10.1654135,10.3607691 9.62814955,10.7532468 8.96540084,10.7532468 L8,10.7532468 L8,12.3116883 L8.96540084,12.3116883 C9.62814955,12.3116883 10.1654135,12.704166 10.1654135,13.1883117 C10.1654135,13.6724574 9.62814955,14.0649351 8.96540084,14.0649351 L8,14.0649351 L8,15.6233766 L8.96540084,15.6233766 C9.62814955,15.6233766 10.1654135,16.0158543 10.1654135,16.5 C10.1654135,16.9841457 9.62814955,17.3766234 8.96540084,17.3766234 L8,17.3766234 L8,18.9350649 L8.96540084,18.9350649 C9.62814955,18.9350649 10.1654135,19.3275426 10.1654135,19.8116883 C10.1654135,20.295834 9.62814955,20.6883117 8.96540084,20.6883117 L8,20.6883117 L8,22.2467532 L8.96540084,22.2467532 C9.62814955,22.2467532 10.1654135,22.6392309 10.1654135,23.1233766 C10.1654135,23.6075223 9.62814955,24 8.96540084,24 L8,24 Z M12.0068077,19.262099 L12.0068077,21.248291 L13.9961761,21.248291 L19.8634865,15.3903487 L17.8741181,13.4041567 L12.0068077,19.262099 Z M21.4019313,13.8543602 C21.6088256,13.6477962 21.6088256,13.314116 21.4019313,13.107552 L20.1605655,11.8681682 C19.9536712,11.6616042 19.6194573,11.6616042 19.412563,11.8681682 L18.4417512,12.8374299 L20.4311196,14.8236219 L21.4019313,13.8543602 Z" id="Combined-Shape" fill="#FFFFFF"></path>
                </g>
            </g>
        </g>
    </g>
</svg>